<?xml version="1.0" encoding="UTF-8"?>
<svg id="_レイヤー_1" xmlns="http://www.w3.org/2000/svg" version="1.1" xmlns:xlink="http://www.w3.org/1999/xlink" viewBox="0 0 15.4 31.7">
  <!-- Generator: Adobe Illustrator 29.0.1, SVG Export Plug-In . SVG Version: 2.1.0 Build 192)  -->
  <defs>
    <style>
      .st0 {
        fill: url(#GradientFill_73);
      }

      .st0, .st1, .st2, .st3, .st4, .st5, .st6, .st7, .st8, .st9, .st10, .st11, .st12, .st13, .st14, .st15, .st16, .st17, .st18, .st19, .st20, .st21, .st22 {
        fill-rule: evenodd;
      }

      .st1 {
        fill: url(#GradientFill_714);
      }

      .st2 {
        fill: url(#GradientFill_72);
      }

      .st3 {
        fill: url(#GradientFill_712);
      }

      .st4 {
        fill: url(#GradientFill_715);
      }

      .st5 {
        fill: url(#GradientFill_717);
      }

      .st6 {
        fill: url(#GradientFill_720);
      }

      .st7 {
        fill: url(#GradientFill_74);
      }

      .st8 {
        fill: url(#GradientFill_7);
      }

      .st9 {
        fill: url(#GradientFill_710);
      }

      .st10 {
        fill: url(#GradientFill_716);
      }

      .st11 {
        fill: url(#GradientFill_76);
      }

      .st12 {
        fill: url(#GradientFill_711);
      }

      .st13 {
        fill: url(#GradientFill_719);
      }

      .st14 {
        fill: url(#GradientFill_78);
      }

      .st15 {
        fill: url(#GradientFill_718);
      }

      .st16 {
        fill: url(#GradientFill_721);
      }

      .st17 {
        fill: url(#GradientFill_713);
      }

      .st18 {
        fill: url(#GradientFill_79);
      }

      .st19 {
        fill: url(#GradientFill_75);
      }

      .st20 {
        fill: url(#GradientFill_71);
      }

      .st21 {
        fill: url(#GradientFill_722);
      }

      .st22 {
        fill: url(#GradientFill_77);
      }
    </style>
    <linearGradient id="GradientFill_7" data-name="GradientFill 7" x1="11.4" y1="1.6" x2="11.4" y2=".1" gradientUnits="userSpaceOnUse">
      <stop offset="0" stop-color="#dba73e"/>
      <stop offset=".2" stop-color="#d89d3a"/>
      <stop offset=".3" stop-color="#a46b28"/>
      <stop offset=".5" stop-color="#8e5723"/>
      <stop offset=".5" stop-color="#f4f3b8"/>
      <stop offset=".6" stop-color="#f7ed9a"/>
      <stop offset=".7" stop-color="#d5b767"/>
      <stop offset=".8" stop-color="#a76f29"/>
      <stop offset=".8" stop-color="#d0ab5b"/>
      <stop offset="1" stop-color="#e0c77d"/>
    </linearGradient>
    <linearGradient id="GradientFill_71" data-name="GradientFill 7" x1="12.2" y1="31.1" x2="12.2" y2="30.1" xlink:href="#GradientFill_7"/>
    <linearGradient id="GradientFill_72" data-name="GradientFill 7" x1="12.5" y1="30.3" x2="12.5" y2="28.4" xlink:href="#GradientFill_7"/>
    <linearGradient id="GradientFill_73" data-name="GradientFill 7" x1="10.3" y1="30.3" x2="10.3" y2="27.6" xlink:href="#GradientFill_7"/>
    <linearGradient id="GradientFill_74" data-name="GradientFill 7" x1="8.6" y1="29.4" x2="8.6" y2="26.7" xlink:href="#GradientFill_7"/>
    <linearGradient id="GradientFill_75" data-name="GradientFill 7" x1="6.9" y1="28.3" x2="6.9" y2="25.6" xlink:href="#GradientFill_7"/>
    <linearGradient id="GradientFill_76" data-name="GradientFill 7" x1="5.4" y1="27" x2="5.4" y2="24.3" xlink:href="#GradientFill_7"/>
    <linearGradient id="GradientFill_77" data-name="GradientFill 7" x1="4.2" y1="25.6" x2="4.2" y2="22.9" xlink:href="#GradientFill_7"/>
    <linearGradient id="GradientFill_78" data-name="GradientFill 7" x1="3.1" y1="24.1" x2="3.1" y2="21.3" xlink:href="#GradientFill_7"/>
    <linearGradient id="GradientFill_79" data-name="GradientFill 7" x1="2.3" y1="22.4" x2="2.3" y2="19.7" xlink:href="#GradientFill_7"/>
    <linearGradient id="GradientFill_710" data-name="GradientFill 7" x1="1.7" y1="20.7" x2="1.7" y2="18" xlink:href="#GradientFill_7"/>
    <linearGradient id="GradientFill_711" data-name="GradientFill 7" x1="1.4" y1="18.8" x2="1.4" y2="16.3" xlink:href="#GradientFill_7"/>
    <linearGradient id="GradientFill_712" data-name="GradientFill 7" x1="1.4" y1="16.9" x2="1.4" y2="14.5" xlink:href="#GradientFill_7"/>
    <linearGradient id="GradientFill_713" data-name="GradientFill 7" x1="1.6" y1="15" x2="1.6" y2="12.6" xlink:href="#GradientFill_7"/>
    <linearGradient id="GradientFill_714" data-name="GradientFill 7" x1="2.1" y1="13.1" x2="2.1" y2="10.6" xlink:href="#GradientFill_7"/>
    <linearGradient id="GradientFill_715" data-name="GradientFill 7" x1="2.8" y1="11.3" x2="2.8" y2="8.6" xlink:href="#GradientFill_7"/>
    <linearGradient id="GradientFill_716" data-name="GradientFill 7" x1="3.6" y1="9.5" x2="3.6" y2="6.7" xlink:href="#GradientFill_7"/>
    <linearGradient id="GradientFill_717" data-name="GradientFill 7" x1="4.6" y1="7.8" x2="4.6" y2="5" xlink:href="#GradientFill_7"/>
    <linearGradient id="GradientFill_718" data-name="GradientFill 7" x1="5.8" y1="6.2" x2="5.8" y2="3.5" xlink:href="#GradientFill_7"/>
    <linearGradient id="GradientFill_719" data-name="GradientFill 7" x1="7.2" y1="4.8" x2="7.2" y2="2.1" xlink:href="#GradientFill_7"/>
    <linearGradient id="GradientFill_720" data-name="GradientFill 7" x1="8.7" y1="3.7" x2="8.7" y2=".9" xlink:href="#GradientFill_7"/>
    <linearGradient id="GradientFill_721" data-name="GradientFill 7" x1="10.2" y1="2.7" x2="10.2" y2="0" xlink:href="#GradientFill_7"/>
    <linearGradient id="GradientFill_722" data-name="GradientFill 7" x1="14.2" y1="31.7" x2="14.2" y2="28.9" xlink:href="#GradientFill_7"/>
  </defs>
  <path class="st8" d="M11.4,1.5h0c-.4.1-.7,0-.8,0h-.2c0,0,0,0,0,0,.5-.1.2-.7.9-.9.2,0,.6-.1.8-.2.4,0,.4-.3.6-.4,0,.2-.8,1.3-1.2,1.4h0Z"/>
  <path class="st20" d="M12.5,30.1h0c.4,0,.7.2.8.2h.3s0,0,0,0c-.5,0-.4.6-1.1.6-.2,0-.6,0-.8,0-.4,0-.4.1-.7.2,0-.2,1.2-1,1.5-1h0Z"/>
  <path class="st2" d="M12.5,30h0c.4.2.7.2.8.2h.2c0,.1,0,0,0,0-.5-.2,0-.7-.7-1-.2,0-.5-.2-.7-.3-.3-.1-.3-.3-.5-.5,0,.2.6,1.5.9,1.6h0Z"/>
  <path class="st0" d="M10.7,29.4h0c-.3,0-1.6.6-1.7.8.2,0,.3-.2.7-.2.2,0,.5.1.8.2.7.1.7-.5,1.2-.4h0c0,0-.2-.1-.2-.1,0,0-.2-.1-.4-.2.2,0,.4,0,.4.1h.2c0,.1,0,0,0,0-.4-.3,0-.7-.6-1.1-.2-.1-.5-.3-.7-.4-.3-.2-.3-.4-.4-.6,0,.2.4,1.5.7,1.7.1,0,.2.1.3.2,0,0-.2,0-.3,0h0Z"/>
  <path class="st7" d="M8.9,28.5h0c.1,0,.2,0,.3.1,0,0-.2-.1-.3-.2-.3-.2-.6-1.6-.5-1.8,0,.2,0,.4.3.6.2.1.5.3.6.5.6.4,0,.8.5,1.2h0c0,0-.2,0-.2,0,0,0-.2,0-.4-.2.2.1.3.2.4.3h.2c0,0,0,.1,0,.1-.5-.1-.5.5-1.2.3-.2,0-.5-.2-.8-.3-.3-.1-.5,0-.7,0,.1-.2,1.4-.7,1.8-.6h0Z"/>
  <path class="st19" d="M7.3,27.5h0c-.3-.2-1.7.2-1.8.4.2,0,.4-.1.7,0,.2.1.5.3.7.4.6.3.8-.3,1.2-.1h0s-.2-.2-.2-.2c0,0-.2-.2-.3-.3.2.1.3.2.4.2l.2.2h0c-.3-.4.2-.8-.3-1.3-.2-.2-.4-.4-.6-.6-.3-.3-.2-.4-.2-.7-.1.2,0,1.6.2,1.8,0,.1.2.2.3.3,0,0-.2-.1-.3-.2h0Z"/>
  <path class="st11" d="M5.9,26.2h0c.1,0,.2.1.3.2,0,0-.2-.2-.2-.3-.2-.3-.1-1.7,0-1.8,0,.2,0,.4.2.7.1.2.4.4.5.6.4.6-.1.8.2,1.2h0c0,0-.2-.1-.2-.1,0,0-.2-.1-.4-.3.2.2.2.3.3.4h.2c0,.1,0,.2,0,.2-.4-.3-.7.3-1.2,0-.2-.1-.5-.3-.7-.5-.3-.2-.5,0-.7-.1.2-.1,1.5-.3,1.8-.1h0Z"/>
  <path class="st22" d="M4.6,24.8h0c.1,0,.2.2.3.2,0,0-.1-.2-.2-.3-.2-.3,0-1.7.2-1.8,0,.2-.1.4,0,.7.1.2.3.5.4.7.4.6-.2.8,0,1.2h0s-.1-.2-.1-.2c0,0-.2-.1-.3-.3.1.2.2.3.2.4l.2.2h0c-.4-.3-.7.3-1.2-.2-.2-.2-.4-.4-.6-.5-.3-.2-.4-.1-.7-.2.2-.1,1.6-.1,1.8,0h0Z"/>
  <path class="st14" d="M3.6,23.2h0c-.2-.3-1.6-.4-1.8-.3.2,0,.4,0,.7.3.2.2.4.4.5.6.5.5.8,0,1.2.4h0s-.2-.2-.2-.2c0,0,0-.2-.2-.4.1.2.3.3.3.4v.2c0,0,.1,0,.1,0-.2-.5.4-.6.2-1.2,0-.2-.2-.5-.3-.7-.1-.3,0-.5,0-.7-.2.1-.6,1.5-.4,1.8,0,.1,0,.2.1.3,0,0-.1-.2-.2-.3h0Z"/>
  <path class="st18" d="M2.7,21.5h0c0,0,.1.2.2.3,0,0,0-.2-.1-.3,0-.3.5-1.6.7-1.7,0,.2-.2.4-.1.7,0,.2.2.5.2.8.2.7-.4.7-.3,1.2h0s0-.2,0-.2c0,0-.2-.2-.2-.4,0,.2.1.4.1.4v.2c.1,0,0,0,0,0-.3-.4-.7,0-1.1-.5-.1-.2-.3-.5-.5-.7-.2-.3-.4-.2-.6-.4.2,0,1.6.3,1.8.5h0Z"/>
  <path class="st9" d="M2,19.7h0c-.2-.3-1.5-.8-1.7-.8.2.1.4.1.6.4.1.2.3.5.4.7.3.6.8.2,1.1.6h0s-.1-.2-.1-.2c0,0,0-.2,0-.4,0,.2.2.3.2.4v.2s0,0,0,0c0-.5.6-.5.5-1.2,0-.2-.1-.6-.1-.8,0-.4.1-.5.2-.7-.2,0-.9,1.3-.9,1.6,0,.1,0,.2,0,.3,0,0,0-.2-.2-.3h0Z"/>
  <path class="st12" d="M1.6,17.8h0c0,.1,0,.2.1.3,0,0,0-.2,0-.3,0-.4.9-1.4,1.1-1.5-.1.2-.3.3-.3.7,0,.2,0,.6,0,.8,0,.7-.6.6-.6,1.1h0s0-.2,0-.2c0,0-.1-.2-.1-.5,0,.2,0,.4,0,.5v.2c0,0,0,0,0,0-.2-.5-.7-.1-1-.8,0-.2-.2-.5-.3-.8-.1-.3-.3-.3-.5-.5.2,0,1.4.6,1.6,1h0Z"/>
  <path class="st3" d="M1.4,15.9h0c0-.3-1.2-1.2-1.4-1.2.2.2.4.2.4.6,0,.2.1.6.2.8.2.7.7.4.9.9h0s0-.2,0-.2c0,0,0-.2,0-.5,0,.2,0,.4,0,.4v.3s0,0,0,0c0-.5.7-.3.7-1,0-.2,0-.6,0-.8,0-.4.2-.4.4-.6-.2,0-1.2,1-1.3,1.4,0,.1,0,.2,0,.3,0-.1,0-.2,0-.3h0Z"/>
  <path class="st17" d="M1.5,13.9h0c0,.1,0,.2,0,.3,0-.1,0-.2,0-.3,0-.3,1.2-1.2,1.4-1.2-.2.2-.4.2-.4.6,0,.2-.1.6-.2.8-.2.7-.7.4-.9.9h0s0-.2,0-.2c0,0,0-.2,0-.5,0,.2,0,.4,0,.5v.2s0,0,0,0c0-.5-.7-.3-.8-1,0-.2,0-.6,0-.8,0-.4-.2-.4-.4-.6.2,0,1.2,1,1.3,1.3h0Z"/>
  <path class="st1" d="M1.8,12.1h0c0-.4-.9-1.4-1.1-1.5.1.2.3.3.3.6,0,.2,0,.6,0,.8,0,.7.6.6.6,1.1h0s0-.2,0-.2c0,0,0-.2.1-.4,0,.2,0,.4,0,.5v.2c0,0,0,0,0,0,.2-.5.7-.1,1-.8,0-.2.2-.5.3-.8.1-.3.3-.3.5-.5-.2,0-1.4.7-1.6,1,0,.1,0,.2-.1.3,0-.1,0-.2,0-.4h0Z"/>
  <path class="st4" d="M2.3,10.2h0c0,.1,0,.2,0,.3,0,0,0-.2.1-.3.2-.3,1.5-.8,1.7-.8-.2.1-.4.1-.6.4-.1.2-.2.5-.4.7-.3.6-.8.2-1.1.7h0s.1-.2.1-.2c0,0,0-.2,0-.5,0,.2-.2.3-.2.4v.2s0,0,0,0c0-.5-.6-.5-.5-1.1,0-.2,0-.6.1-.8,0-.4-.1-.4-.2-.7.2,0,1,1.3.9,1.6h0Z"/>
  <path class="st10" d="M3.1,8.5h0c0-.3-.5-1.6-.7-1.7,0,.2.2.3.1.7,0,.2-.2.5-.2.8-.2.7.4.7.3,1.2h0s0-.2,0-.2c0,0,.1-.2.2-.4,0,.2-.1.4-.1.4v.2c-.1,0,0,0,0,0,.3-.4.7,0,1.1-.5.1-.2.3-.5.4-.7.2-.3.4-.3.6-.4-.2,0-1.6.3-1.8.6,0,0-.1.2-.2.3,0,0,0-.2,0-.3h0Z"/>
  <path class="st5" d="M4.1,6.8h0c0,.1,0,.2-.1.3,0,0,.1-.2.2-.3.2-.3,1.6-.4,1.8-.4-.2,0-.4,0-.6.3-.2.2-.4.4-.5.6-.5.5-.8,0-1.2.4h0s.2-.2.2-.2c0,0,0-.2.2-.4-.1.2-.3.3-.3.4v.2c0,0-.1,0-.1,0,.2-.5-.4-.6-.2-1.2,0-.2.2-.5.3-.7.1-.3,0-.5,0-.7.2.1.6,1.5.5,1.8h0Z"/>
  <path class="st15" d="M5.3,5.3h0c.2-.3-.1-1.7-.2-1.8,0,.2.1.4,0,.7-.1.2-.3.5-.4.7-.3.6.3.8,0,1.2h0s.1-.2.1-.2c0,0,.2-.1.3-.3-.1.2-.2.3-.2.4l-.2.2h0c.4-.3.7.3,1.2-.2.2-.2.4-.4.6-.5.3-.2.4-.1.7-.2-.2-.1-1.6-.1-1.8.1-.1,0-.2.2-.3.2,0,0,.1-.2.2-.3h0Z"/>
  <path class="st13" d="M6.6,3.9h0c.2-.3.1-1.7,0-1.8,0,.2,0,.4-.1.7-.1.2-.4.4-.5.6-.4.6.2.8-.1,1.2h0c0,0,.1-.2.1-.2,0,0,.2-.1.4-.3-.2.2-.2.3-.3.4h-.2c0,.1,0,.2,0,.2.4-.3.7.3,1.2,0,.2-.1.5-.3.7-.5.3-.2.5,0,.7-.1-.2-.1-1.6-.3-1.8-.1-.1,0-.2.1-.3.2,0,0,.1-.2.2-.3h0Z"/>
  <path class="st6" d="M8.2,2.8h0c0,.1-.2.2-.2.2,0,0,.2-.1.3-.2.3-.2,1.7.2,1.8.3-.2,0-.4-.1-.7,0-.2.1-.5.3-.7.4-.6.3-.8-.3-1.2,0h0s.2-.2.2-.2c0,0,.2-.2.3-.3-.2.1-.3.2-.4.2l-.2.2h0c.3-.4-.2-.8.3-1.3.2-.2.4-.4.6-.6.3-.3.2-.4.2-.7.1.2,0,1.6-.2,1.8h0Z"/>
  <path class="st16" d="M9.8,1.8h0c.3-.2.5-1.6.4-1.8,0,.2,0,.4-.3.6-.2.2-.4.3-.6.5-.5.4,0,.8-.4,1.2h0c0,0,.2,0,.2,0,0,0,.2,0,.4-.2-.2.1-.3.2-.4.3h-.2c0,0,0,.1,0,.1.5-.2.6.5,1.2.2.2,0,.5-.2.8-.3.3-.1.5,0,.7,0-.1-.2-1.4-.7-1.8-.6-.1,0-.2,0-.3.1,0,0,.2-.1.3-.2h0Z"/>
  <path class="st21" d="M14.3,30.5h0c-.4,0-1.4,1-1.4,1.2.2-.1.3-.3.6-.3.2,0,.6,0,.8,0,.7,0,.5-.6,1-.7h0c0,0-.3,0-.3,0,0,0-.2,0-.4-.1.2,0,.4,0,.5,0h.2c0,0,0,0,0,0-.5-.2-.2-.7-.9-.9-.2,0-.5-.1-.8-.2-.3-.1-.4-.3-.5-.5,0,.2.8,1.4,1.1,1.5.1,0,.2,0,.3,0-.1,0-.2,0-.3,0h0Z"/>
</svg>